<svg width="10" height="12" viewBox="0 0 10 12" fill="none" xmlns="http://www.w3.org/2000/svg">
  <path d="M1 1.07835C1 1.07835 1.75608 1 1.75608 3.2331V8.7669C1.75608 11 1 10.9216 1 10.9216V11H4.18601V10.9216C4.18601 10.9216 3.43469 11 3.43469 8.7669V6.06366H4.05287C4.38573 6.06366 6.3021 6.09305 6.70154 6.27914C6.90416 6.37384 7.08143 6.5178 7.2181 6.69864C7.35477 6.87948 7.44676 7.0918 7.48615 7.31734H7.59077V4.30069H7.48615C7.43989 4.5162 7.34465 4.71735 7.20826 4.88761C7.07187 5.05787 6.89821 5.19239 6.70154 5.28012C6.31161 5.46621 4.38098 5.476 4.05287 5.476H3.42993V1.59745H6.25455C8.27552 1.59745 8.63217 2.88051 8.63217 2.88051H8.72727V1H1V1.07835Z" fill="#D9D9D9" />
</svg>