<svg width="24" height="24" viewBox="0 0 24 24" fill="none" xmlns="http://www.w3.org/2000/svg">
<rect width="24" height="24" rx="12" fill="black"/>
<path d="M17.0007 14.46V15.96C17.0013 16.0993 16.9727 16.2371 16.917 16.3647C16.8612 16.4923 16.7793 16.6068 16.6767 16.701C16.5741 16.7951 16.453 16.8668 16.3211 16.9114C16.1892 16.956 16.0494 16.9726 15.9107 16.96C14.3721 16.7929 12.8942 16.2671 11.5957 15.425C10.3876 14.6574 9.36337 13.6331 8.5957 12.425C7.75069 11.1207 7.22482 9.63555 7.0607 8.09005C7.0482 7.95178 7.06464 7.81243 7.10895 7.68086C7.15326 7.54929 7.22448 7.42839 7.31808 7.32586C7.41168 7.22332 7.5256 7.1414 7.65259 7.08531C7.77959 7.02922 7.91687 7.00018 8.0557 7.00005H9.5557C9.79835 6.99766 10.0336 7.08359 10.2176 7.24181C10.4016 7.40004 10.5217 7.61977 10.5557 7.86005C10.619 8.34008 10.7364 8.81141 10.9057 9.26505C10.973 9.44401 10.9875 9.63851 10.9477 9.82549C10.9078 10.0125 10.8151 10.1841 10.6807 10.32L10.0457 10.955C10.7575 12.2068 11.7939 13.2433 13.0457 13.955L13.6807 13.32C13.8166 13.1856 13.9883 13.093 14.1753 13.0531C14.3622 13.0132 14.5567 13.0278 14.7357 13.095C15.1893 13.2643 15.6607 13.3817 16.1407 13.445C16.3836 13.4793 16.6054 13.6017 16.764 13.7888C16.9225 13.9759 17.0068 14.2148 17.0007 14.46Z" fill="white"/>
</svg>
